<svg xmlns="http://www.w3.org/2000/svg" xmlns:xlink="http://www.w3.org/1999/xlink" width="500" zoomAndPan="magnify" viewBox="0 0 375 374.999991" height="500" preserveAspectRatio="xMidYMid meet" version="1.0"><defs><g/></defs><g fill="#000000" fill-opacity="1"><g transform="translate(0.421125, 253.915776)"><g><path d="M 45.640625 -85.0625 C 56.546875 -85.0625 65.375 -82.070312 72.125 -76.09375 C 78.875 -70.125 82.664062 -62.414062 83.5 -52.96875 L 62.3125 -52.96875 C 60.445312 -64.289062 54.734375 -69.953125 45.171875 -69.953125 C 39.460938 -69.953125 34.921875 -67.613281 31.546875 -62.9375 C 28.171875 -58.257812 26.484375 -51.351562 26.484375 -42.21875 C 26.484375 -32.351562 28.144531 -25.003906 31.46875 -20.171875 C 34.789062 -15.347656 39.304688 -12.9375 45.015625 -12.9375 C 49.273438 -12.9375 52.882812 -14.285156 55.84375 -16.984375 C 58.800781 -19.679688 60.800781 -23.570312 61.84375 -28.65625 L 83.34375 -28.65625 C 81.570312 -18.6875 77.179688 -11.050781 70.171875 -5.75 C 63.171875 -0.457031 54.375 2.1875 43.78125 2.1875 C 32.039062 2.1875 22.507812 -1.523438 15.1875 -8.953125 C 7.863281 -16.378906 4.203125 -27 4.203125 -40.8125 C 4.203125 -54.519531 8.148438 -65.320312 16.046875 -73.21875 C 23.941406 -81.113281 33.804688 -85.0625 45.640625 -85.0625 Z M 45.640625 -85.0625 "/></g></g></g><g fill="#000000" fill-opacity="1"><g transform="translate(75.19888, 253.915776)"><g><path d="M 87.078125 -61.84375 C 87.492188 -58.101562 87.703125 -53.066406 87.703125 -46.734375 L 87.703125 0 L 66.203125 0 L 66.203125 -43.78125 C 66.203125 -48.65625 66.097656 -52.492188 65.890625 -55.296875 C 65.171875 -65.066406 59.875 -69.953125 50 -69.953125 C 44.394531 -69.847656 39.878906 -67.195312 36.453125 -62 C 33.023438 -56.8125 31.3125 -48.765625 31.3125 -37.859375 L 31.3125 0 L 9.8125 0 L 9.8125 -115.28125 L 31.3125 -115.28125 L 31.3125 -69.484375 L 37.703125 -79.296875 C 43.097656 -83.140625 49.742188 -85.0625 57.640625 -85.0625 C 66.359375 -85.0625 73.234375 -83.035156 78.265625 -78.984375 C 83.304688 -74.929688 86.242188 -69.21875 87.078125 -61.84375 Z M 87.078125 -61.84375 "/></g></g></g><g fill="#000000" fill-opacity="1"><g transform="translate(159.323849, 253.915776)"><g><path d="M 15.578125 -72.984375 C 23.160156 -81.035156 33.703125 -85.0625 47.203125 -85.0625 C 60.703125 -85.0625 71.242188 -81.035156 78.828125 -72.984375 C 86.410156 -64.929688 90.203125 -54.414062 90.203125 -41.4375 C 90.203125 -28.5625 86.410156 -18.070312 78.828125 -9.96875 C 71.242188 -1.863281 60.703125 2.1875 47.203125 2.1875 C 33.703125 2.1875 23.160156 -1.863281 15.578125 -9.96875 C 7.992188 -18.070312 4.203125 -28.5625 4.203125 -41.4375 C 4.203125 -54.414062 7.992188 -64.929688 15.578125 -72.984375 Z M 32.015625 -20.484375 C 35.703125 -15.453125 40.765625 -12.9375 47.203125 -12.9375 C 53.640625 -12.9375 58.703125 -15.453125 62.390625 -20.484375 C 66.078125 -25.523438 67.921875 -32.507812 67.921875 -41.4375 C 67.921875 -50.363281 66.078125 -57.347656 62.390625 -62.390625 C 58.703125 -67.429688 53.640625 -69.953125 47.203125 -69.953125 C 40.765625 -69.953125 35.703125 -67.429688 32.015625 -62.390625 C 28.328125 -57.347656 26.484375 -50.363281 26.484375 -41.4375 C 26.484375 -32.507812 28.328125 -25.523438 32.015625 -20.484375 Z M 32.015625 -20.484375 "/></g></g></g><g fill="#000000" fill-opacity="1"><g transform="translate(241.112019, 253.915776)"><g><path d="M 52.03125 -84.90625 C 54.414062 -84.90625 56.441406 -84.695312 58.109375 -84.28125 L 58.109375 -66.984375 C 48.960938 -67.609375 42.207031 -65.660156 37.84375 -61.140625 C 33.488281 -56.628906 31.3125 -48.921875 31.3125 -38.015625 L 31.3125 0 L 9.8125 0 L 9.8125 -82.875 L 31.3125 -82.875 L 31.3125 -67.765625 L 37.859375 -79.296875 C 41.910156 -83.035156 46.632812 -84.90625 52.03125 -84.90625 Z M 52.03125 -84.90625 "/></g></g></g><g fill="#000000" fill-opacity="1"><g transform="translate(287.692287, 253.915776)"><g><path d="M 85.0625 -43.15625 C 85.0625 -40.144531 84.957031 -37.703125 84.75 -35.828125 L 25.859375 -35.828125 C 27.109375 -20.566406 33.492188 -12.9375 45.015625 -12.9375 C 49.691406 -12.9375 53.5625 -14.179688 56.625 -16.671875 C 59.6875 -19.160156 61.582031 -22.585938 62.3125 -26.953125 L 83.8125 -26.953125 C 81.726562 -17.503906 77.179688 -10.285156 70.171875 -5.296875 C 63.171875 -0.304688 54.628906 2.1875 44.546875 2.1875 C 32.609375 2.1875 22.898438 -1.523438 15.421875 -8.953125 C 7.941406 -16.378906 4.203125 -27.101562 4.203125 -41.125 C 4.203125 -54 8.070312 -64.539062 15.8125 -72.75 C 23.550781 -80.957031 33.703125 -85.0625 46.265625 -85.0625 C 58.421875 -85.0625 67.925781 -81.0625 74.78125 -73.0625 C 81.632812 -65.0625 85.0625 -55.09375 85.0625 -43.15625 Z M 45.328125 -69.953125 C 34.628906 -69.953125 28.347656 -63.25 26.484375 -49.84375 L 62.9375 -49.84375 C 61.476562 -63.25 55.609375 -69.953125 45.328125 -69.953125 Z M 45.328125 -69.953125 "/></g></g></g><g fill="#000000" fill-opacity="1"><g transform="translate(0.421125, 150.634158)"><g><path d="M 97.984375 -90.671875 L 61.53125 -90.671875 L 61.53125 0 L 40.03125 0 L 40.03125 -90.671875 L 3.578125 -90.671875 L 3.578125 -107.484375 L 97.984375 -107.484375 Z M 97.984375 -90.671875 "/></g></g></g><g fill="#000000" fill-opacity="1"><g transform="translate(84.851526, 150.634158)"><g><path d="M 85.0625 -43.15625 C 85.0625 -40.144531 84.957031 -37.703125 84.75 -35.828125 L 25.859375 -35.828125 C 27.109375 -20.566406 33.492188 -12.9375 45.015625 -12.9375 C 49.691406 -12.9375 53.5625 -14.179688 56.625 -16.671875 C 59.6875 -19.160156 61.582031 -22.585938 62.3125 -26.953125 L 83.8125 -26.953125 C 81.726562 -17.503906 77.179688 -10.285156 70.171875 -5.296875 C 63.171875 -0.304688 54.628906 2.1875 44.546875 2.1875 C 32.609375 2.1875 22.898438 -1.523438 15.421875 -8.953125 C 7.941406 -16.378906 4.203125 -27.101562 4.203125 -41.125 C 4.203125 -54 8.070312 -64.539062 15.8125 -72.75 C 23.550781 -80.957031 33.703125 -85.0625 46.265625 -85.0625 C 58.421875 -85.0625 67.925781 -81.0625 74.78125 -73.0625 C 81.632812 -65.0625 85.0625 -55.09375 85.0625 -43.15625 Z M 45.328125 -69.953125 C 34.628906 -69.953125 28.347656 -63.25 26.484375 -49.84375 L 62.9375 -49.84375 C 61.476562 -63.25 55.609375 -69.953125 45.328125 -69.953125 Z M 45.328125 -69.953125 "/></g></g></g><g fill="#000000" fill-opacity="1"><g transform="translate(162.271952, 150.634158)"><g><path d="M 49.53125 -109.671875 C 61.789062 -109.671875 71.164062 -106.601562 77.65625 -100.46875 C 84.144531 -94.34375 88.015625 -86.140625 89.265625 -75.859375 L 67.296875 -75.859375 C 66.671875 -81.472656 64.800781 -85.835938 61.6875 -88.953125 C 58.570312 -92.066406 54.265625 -93.625 48.765625 -93.625 C 44.296875 -93.625 40.660156 -92.53125 37.859375 -90.34375 C 35.054688 -88.164062 33.65625 -85 33.65625 -80.84375 C 33.65625 -76.28125 35.34375 -72.695312 38.71875 -70.09375 C 42.09375 -67.5 48.035156 -65.21875 56.546875 -63.25 C 68.285156 -60.550781 76.929688 -56.445312 82.484375 -50.9375 C 88.046875 -45.4375 90.828125 -38.320312 90.828125 -29.59375 C 90.828125 -19.832031 86.984375 -12.09375 79.296875 -6.375 C 71.609375 -0.664062 62.207031 2.1875 51.09375 2.1875 C 38.007812 2.1875 27.570312 -0.691406 19.78125 -6.453125 C 11.988281 -12.222656 7.578125 -20.664062 6.546875 -31.78125 L 28.515625 -31.78125 C 29.648438 -26.070312 32.242188 -21.65625 36.296875 -18.53125 C 40.347656 -15.414062 45.175781 -13.859375 50.78125 -13.859375 C 55.769531 -13.859375 59.953125 -15.101562 63.328125 -17.59375 C 66.703125 -20.09375 68.390625 -23.367188 68.390625 -27.421875 C 68.390625 -31.984375 66.753906 -35.664062 63.484375 -38.46875 C 60.210938 -41.28125 54.679688 -43.617188 46.890625 -45.484375 C 34.835938 -48.390625 25.851562 -52.257812 19.9375 -57.09375 C 14.019531 -61.925781 11.0625 -68.960938 11.0625 -78.203125 C 11.0625 -87.753906 14.800781 -95.382812 22.28125 -101.09375 C 29.757812 -106.8125 38.84375 -109.671875 49.53125 -109.671875 Z M 49.53125 -109.671875 "/></g></g></g><g fill="#000000" fill-opacity="1"><g transform="translate(244.365705, 150.634158)"><g><path d="M 35.515625 -68.078125 L 35.515625 -29.75 C 35.515625 -26.320312 35.566406 -23.882812 35.671875 -22.4375 C 35.984375 -18.382812 37.175781 -15.757812 39.25 -14.5625 C 41.332031 -13.375 45.332031 -12.984375 51.25 -13.390625 L 51.25 0.625 C 46.78125 1.351562 42.054688 1.71875 37.078125 1.71875 C 29.179688 1.71875 23.546875 0.394531 20.171875 -2.25 C 16.796875 -4.90625 14.847656 -9.242188 14.328125 -15.265625 C 14.117188 -17.753906 14.015625 -21.753906 14.015625 -27.265625 L 14.015625 -68.078125 L 1.875 -68.078125 L 1.875 -82.25 L 14.015625 -82.25 L 14.015625 -102.65625 L 35.515625 -102.65625 L 35.515625 -82.25 L 52.65625 -82.25 L 52.65625 -68.078125 Z M 35.515625 -68.078125 "/></g></g></g><g fill="#000000" fill-opacity="1"><g transform="translate(117.093465, 299.929056)"><g><path d="M 9.265625 0 C 8.710938 0 8.257812 -0.171875 7.90625 -0.515625 C 7.550781 -0.867188 7.375 -1.300781 7.375 -1.8125 L 7.375 -19.046875 L 11.234375 -19.046875 L 11.234375 -1.8125 C 11.234375 -1.300781 11.050781 -0.867188 10.6875 -0.515625 C 10.320312 -0.171875 9.847656 0 9.265625 0 Z M 2.703125 -17.390625 C 2.191406 -17.390625 1.757812 -17.546875 1.40625 -17.859375 C 1.0625 -18.179688 0.890625 -18.597656 0.890625 -19.109375 C 0.890625 -19.617188 1.0625 -20.023438 1.40625 -20.328125 C 1.757812 -20.640625 2.191406 -20.796875 2.703125 -20.796875 L 15.90625 -20.796875 C 16.414062 -20.796875 16.84375 -20.640625 17.1875 -20.328125 C 17.539062 -20.015625 17.71875 -19.597656 17.71875 -19.078125 C 17.71875 -18.566406 17.539062 -18.15625 17.1875 -17.84375 C 16.84375 -17.539062 16.414062 -17.390625 15.90625 -17.390625 Z M 2.703125 -17.390625 "/></g></g></g><g fill="#000000" fill-opacity="1"><g transform="translate(135.19214, 299.929056)"><g><path d="M 4.046875 -20.796875 L 14 -20.796875 C 14.507812 -20.796875 14.9375 -20.632812 15.28125 -20.3125 C 15.632812 -19.988281 15.8125 -19.566406 15.8125 -19.046875 C 15.8125 -18.554688 15.632812 -18.15625 15.28125 -17.84375 C 14.9375 -17.539062 14.507812 -17.390625 14 -17.390625 L 5.671875 -17.390625 L 5.9375 -17.890625 L 5.9375 -12.09375 L 5.703125 -12.328125 L 12.65625 -12.328125 C 13.175781 -12.328125 13.609375 -12.164062 13.953125 -11.84375 C 14.296875 -11.519531 14.46875 -11.097656 14.46875 -10.578125 C 14.46875 -10.085938 14.296875 -9.6875 13.953125 -9.375 C 13.609375 -9.070312 13.175781 -8.921875 12.65625 -8.921875 L 5.796875 -8.921875 L 5.9375 -9.15625 L 5.9375 -3.15625 L 5.703125 -3.421875 L 14 -3.421875 C 14.507812 -3.421875 14.9375 -3.242188 15.28125 -2.890625 C 15.632812 -2.546875 15.8125 -2.144531 15.8125 -1.6875 C 15.8125 -1.195312 15.632812 -0.789062 15.28125 -0.46875 C 14.9375 -0.15625 14.507812 0 14 0 L 4.046875 0 C 3.523438 0 3.09375 -0.171875 2.75 -0.515625 C 2.40625 -0.867188 2.234375 -1.300781 2.234375 -1.8125 L 2.234375 -18.984375 C 2.234375 -19.503906 2.40625 -19.9375 2.75 -20.28125 C 3.09375 -20.625 3.523438 -20.796875 4.046875 -20.796875 Z M 4.046875 -20.796875 "/></g></g></g><g fill="#000000" fill-opacity="1"><g transform="translate(151.685975, 299.929056)"><g><path d="M 16.796875 -19.796875 C 17.304688 -19.535156 17.601562 -19.125 17.6875 -18.5625 C 17.78125 -18.007812 17.640625 -17.507812 17.265625 -17.0625 C 17.003906 -16.707031 16.671875 -16.507812 16.265625 -16.46875 C 15.859375 -16.425781 15.445312 -16.503906 15.03125 -16.703125 C 14.5625 -16.921875 14.0625 -17.085938 13.53125 -17.203125 C 13.007812 -17.328125 12.460938 -17.390625 11.890625 -17.390625 C 10.816406 -17.390625 9.859375 -17.21875 9.015625 -16.875 C 8.171875 -16.539062 7.453125 -16.0625 6.859375 -15.4375 C 6.265625 -14.8125 5.8125 -14.070312 5.5 -13.21875 C 5.195312 -12.375 5.046875 -11.4375 5.046875 -10.40625 C 5.046875 -9.195312 5.21875 -8.144531 5.5625 -7.25 C 5.914062 -6.351562 6.398438 -5.609375 7.015625 -5.015625 C 7.628906 -4.421875 8.351562 -3.976562 9.1875 -3.6875 C 10.019531 -3.40625 10.921875 -3.265625 11.890625 -3.265625 C 12.421875 -3.265625 12.953125 -3.3125 13.484375 -3.40625 C 14.023438 -3.507812 14.539062 -3.691406 15.03125 -3.953125 C 15.445312 -4.148438 15.859375 -4.21875 16.265625 -4.15625 C 16.671875 -4.101562 17.015625 -3.894531 17.296875 -3.53125 C 17.691406 -3.039062 17.832031 -2.53125 17.71875 -2 C 17.613281 -1.476562 17.316406 -1.097656 16.828125 -0.859375 C 16.304688 -0.597656 15.769531 -0.382812 15.21875 -0.21875 C 14.675781 -0.0507812 14.128906 0.0703125 13.578125 0.15625 C 13.023438 0.25 12.460938 0.296875 11.890625 0.296875 C 10.460938 0.296875 9.109375 0.0703125 7.828125 -0.375 C 6.546875 -0.832031 5.40625 -1.507812 4.40625 -2.40625 C 3.40625 -3.300781 2.617188 -4.414062 2.046875 -5.75 C 1.472656 -7.082031 1.1875 -8.632812 1.1875 -10.40625 C 1.1875 -11.925781 1.445312 -13.328125 1.96875 -14.609375 C 2.5 -15.898438 3.242188 -17.015625 4.203125 -17.953125 C 5.160156 -18.898438 6.289062 -19.632812 7.59375 -20.15625 C 8.90625 -20.6875 10.335938 -20.953125 11.890625 -20.953125 C 12.753906 -20.953125 13.601562 -20.851562 14.4375 -20.65625 C 15.269531 -20.457031 16.054688 -20.171875 16.796875 -19.796875 Z M 16.796875 -19.796875 "/></g></g></g><g fill="#000000" fill-opacity="1"><g transform="translate(169.814368, 299.929056)"><g><path d="M 4.125 -20.796875 C 4.601562 -20.796875 5.023438 -20.625 5.390625 -20.28125 C 5.753906 -19.9375 5.9375 -19.503906 5.9375 -18.984375 L 5.9375 -1.8125 C 5.9375 -1.300781 5.75 -0.867188 5.375 -0.515625 C 5 -0.171875 4.566406 0 4.078125 0 C 3.515625 0 3.066406 -0.171875 2.734375 -0.515625 C 2.398438 -0.867188 2.234375 -1.300781 2.234375 -1.8125 L 2.234375 -18.984375 C 2.234375 -19.503906 2.410156 -19.9375 2.765625 -20.28125 C 3.117188 -20.625 3.570312 -20.796875 4.125 -20.796875 Z M 17.296875 -20.796875 C 17.847656 -20.796875 18.289062 -20.625 18.625 -20.28125 C 18.96875 -19.9375 19.140625 -19.503906 19.140625 -18.984375 L 19.140625 -1.8125 C 19.140625 -1.300781 18.960938 -0.867188 18.609375 -0.515625 C 18.265625 -0.171875 17.804688 0 17.234375 0 C 16.765625 0 16.34375 -0.171875 15.96875 -0.515625 C 15.601562 -0.867188 15.421875 -1.300781 15.421875 -1.8125 L 15.421875 -18.984375 C 15.421875 -19.503906 15.609375 -19.9375 15.984375 -20.28125 C 16.359375 -20.625 16.796875 -20.796875 17.296875 -20.796875 Z M 4.046875 -12.15625 L 17.296875 -12.15625 L 17.296875 -8.734375 L 4.046875 -8.734375 Z M 4.046875 -12.15625 "/></g></g></g><g fill="#000000" fill-opacity="1"><g transform="translate(190.676903, 299.929056)"><g/></g></g><g fill="#000000" fill-opacity="1"><g transform="translate(198.492784, 299.929056)"><g><path d="M 10.8125 -20.796875 C 11.84375 -20.796875 12.804688 -20.5 13.703125 -19.90625 C 14.609375 -19.3125 15.335938 -18.507812 15.890625 -17.5 C 16.453125 -16.488281 16.734375 -15.359375 16.734375 -14.109375 C 16.734375 -12.890625 16.453125 -11.773438 15.890625 -10.765625 C 15.335938 -9.753906 14.609375 -8.941406 13.703125 -8.328125 C 12.804688 -7.722656 11.84375 -7.421875 10.8125 -7.421875 L 5.34375 -7.421875 L 5.640625 -7.96875 L 5.640625 -1.8125 C 5.640625 -1.300781 5.484375 -0.867188 5.171875 -0.515625 C 4.859375 -0.171875 4.441406 0 3.921875 0 C 3.429688 0 3.023438 -0.171875 2.703125 -0.515625 C 2.390625 -0.867188 2.234375 -1.300781 2.234375 -1.8125 L 2.234375 -18.984375 C 2.234375 -19.503906 2.40625 -19.9375 2.75 -20.28125 C 3.09375 -20.625 3.523438 -20.796875 4.046875 -20.796875 Z M 10.8125 -10.8125 C 11.1875 -10.8125 11.550781 -10.96875 11.90625 -11.28125 C 12.269531 -11.601562 12.570312 -12.015625 12.8125 -12.515625 C 13.050781 -13.023438 13.171875 -13.554688 13.171875 -14.109375 C 13.171875 -14.691406 13.050781 -15.226562 12.8125 -15.71875 C 12.570312 -16.21875 12.269531 -16.617188 11.90625 -16.921875 C 11.550781 -17.234375 11.1875 -17.390625 10.8125 -17.390625 L 5.296875 -17.390625 L 5.640625 -17.921875 L 5.640625 -10.34375 L 5.3125 -10.8125 Z M 10.8125 -10.8125 "/></g></g></g><g fill="#000000" fill-opacity="1"><g transform="translate(215.907911, 299.929056)"><g><path d="M 4.375 0 C 3.8125 0 3.3125 -0.171875 2.875 -0.515625 C 2.445312 -0.867188 2.234375 -1.300781 2.234375 -1.8125 L 2.234375 -18.984375 C 2.234375 -19.503906 2.40625 -19.9375 2.75 -20.28125 C 3.09375 -20.625 3.523438 -20.796875 4.046875 -20.796875 L 12.59375 -20.796875 C 13.625 -20.796875 14.585938 -20.523438 15.484375 -19.984375 C 16.390625 -19.441406 17.117188 -18.6875 17.671875 -17.71875 C 18.234375 -16.757812 18.515625 -15.65625 18.515625 -14.40625 C 18.515625 -13.65625 18.359375 -12.921875 18.046875 -12.203125 C 17.742188 -11.492188 17.328125 -10.851562 16.796875 -10.28125 C 16.273438 -9.707031 15.6875 -9.257812 15.03125 -8.9375 L 15.0625 -9.625 C 15.625 -9.332031 16.085938 -8.984375 16.453125 -8.578125 C 16.816406 -8.171875 17.101562 -7.734375 17.3125 -7.265625 C 17.519531 -6.796875 17.644531 -6.296875 17.6875 -5.765625 C 17.757812 -5.265625 17.8125 -4.828125 17.84375 -4.453125 C 17.875 -4.078125 17.929688 -3.757812 18.015625 -3.5 C 18.109375 -3.25 18.285156 -3.050781 18.546875 -2.90625 C 18.984375 -2.65625 19.253906 -2.285156 19.359375 -1.796875 C 19.472656 -1.304688 19.359375 -0.875 19.015625 -0.5 C 18.796875 -0.25 18.519531 -0.0859375 18.1875 -0.015625 C 17.851562 0.0546875 17.515625 0.0546875 17.171875 -0.015625 C 16.835938 -0.0859375 16.5625 -0.179688 16.34375 -0.296875 C 16.007812 -0.492188 15.671875 -0.785156 15.328125 -1.171875 C 14.992188 -1.554688 14.722656 -2.078125 14.515625 -2.734375 C 14.304688 -3.390625 14.203125 -4.234375 14.203125 -5.265625 C 14.203125 -5.597656 14.140625 -5.90625 14.015625 -6.1875 C 13.898438 -6.476562 13.734375 -6.726562 13.515625 -6.9375 C 13.296875 -7.144531 13.019531 -7.300781 12.6875 -7.40625 C 12.351562 -7.519531 11.957031 -7.578125 11.5 -7.578125 L 5.5 -7.578125 L 5.9375 -8.265625 L 5.9375 -1.8125 C 5.9375 -1.300781 5.796875 -0.867188 5.515625 -0.515625 C 5.242188 -0.171875 4.863281 0 4.375 0 Z M 5.53125 -10.640625 L 12.453125 -10.640625 C 12.804688 -10.640625 13.148438 -10.800781 13.484375 -11.125 C 13.828125 -11.457031 14.109375 -11.90625 14.328125 -12.46875 C 14.546875 -13.03125 14.65625 -13.648438 14.65625 -14.328125 C 14.65625 -15.191406 14.421875 -15.914062 13.953125 -16.5 C 13.484375 -17.09375 12.984375 -17.390625 12.453125 -17.390625 L 5.59375 -17.390625 L 5.9375 -18.34375 L 5.9375 -9.921875 Z M 5.53125 -10.640625 "/></g></g></g><g fill="#000000" fill-opacity="1"><g transform="translate(235.819436, 299.929056)"><g><path d="M 21.375 -10.40625 C 21.375 -8.914062 21.125 -7.523438 20.625 -6.234375 C 20.125 -4.953125 19.421875 -3.816406 18.515625 -2.828125 C 17.617188 -1.847656 16.550781 -1.082031 15.3125 -0.53125 C 14.082031 0.0195312 12.734375 0.296875 11.265625 0.296875 C 9.796875 0.296875 8.445312 0.0195312 7.21875 -0.53125 C 5.988281 -1.082031 4.921875 -1.847656 4.015625 -2.828125 C 3.117188 -3.816406 2.421875 -4.953125 1.921875 -6.234375 C 1.429688 -7.523438 1.1875 -8.914062 1.1875 -10.40625 C 1.1875 -11.882812 1.429688 -13.269531 1.921875 -14.5625 C 2.421875 -15.851562 3.117188 -16.988281 4.015625 -17.96875 C 4.921875 -18.945312 5.988281 -19.710938 7.21875 -20.265625 C 8.445312 -20.816406 9.796875 -21.09375 11.265625 -21.09375 C 12.734375 -21.09375 14.082031 -20.816406 15.3125 -20.265625 C 16.550781 -19.710938 17.617188 -18.945312 18.515625 -17.96875 C 19.421875 -16.988281 20.125 -15.851562 20.625 -14.5625 C 21.125 -13.269531 21.375 -11.882812 21.375 -10.40625 Z M 17.5 -10.40625 C 17.5 -11.726562 17.234375 -12.925781 16.703125 -14 C 16.171875 -15.082031 15.4375 -15.941406 14.5 -16.578125 C 13.570312 -17.210938 12.492188 -17.53125 11.265625 -17.53125 C 10.035156 -17.53125 8.953125 -17.210938 8.015625 -16.578125 C 7.085938 -15.941406 6.359375 -15.085938 5.828125 -14.015625 C 5.304688 -12.953125 5.046875 -11.75 5.046875 -10.40625 C 5.046875 -9.070312 5.304688 -7.863281 5.828125 -6.78125 C 6.359375 -5.707031 7.085938 -4.851562 8.015625 -4.21875 C 8.953125 -3.582031 10.035156 -3.265625 11.265625 -3.265625 C 12.492188 -3.265625 13.570312 -3.582031 14.5 -4.21875 C 15.4375 -4.851562 16.171875 -5.707031 16.703125 -6.78125 C 17.234375 -7.863281 17.5 -9.070312 17.5 -10.40625 Z M 17.5 -10.40625 "/></g></g></g><g fill="#000000" fill-opacity="1"><g transform="translate(257.870746, 299.929056)"><g><path d="M 11.140625 -20.796875 C 12.566406 -20.796875 13.832031 -20.53125 14.9375 -20 C 16.050781 -19.46875 16.988281 -18.71875 17.75 -17.75 C 18.519531 -16.789062 19.097656 -15.679688 19.484375 -14.421875 C 19.867188 -13.171875 20.0625 -11.832031 20.0625 -10.40625 C 20.0625 -8.476562 19.710938 -6.726562 19.015625 -5.15625 C 18.328125 -3.582031 17.320312 -2.328125 16 -1.390625 C 14.6875 -0.460938 13.066406 0 11.140625 0 L 4.046875 0 C 3.523438 0 3.09375 -0.171875 2.75 -0.515625 C 2.40625 -0.867188 2.234375 -1.300781 2.234375 -1.8125 L 2.234375 -18.984375 C 2.234375 -19.503906 2.40625 -19.9375 2.75 -20.28125 C 3.09375 -20.625 3.523438 -20.796875 4.046875 -20.796875 Z M 10.84375 -3.421875 C 12.09375 -3.421875 13.113281 -3.738281 13.90625 -4.375 C 14.695312 -5.019531 15.273438 -5.875 15.640625 -6.9375 C 16.015625 -8 16.203125 -9.15625 16.203125 -10.40625 C 16.203125 -11.332031 16.097656 -12.21875 15.890625 -13.0625 C 15.679688 -13.90625 15.359375 -14.644531 14.921875 -15.28125 C 14.484375 -15.925781 13.925781 -16.4375 13.25 -16.8125 C 12.582031 -17.195312 11.78125 -17.390625 10.84375 -17.390625 L 5.640625 -17.390625 L 5.9375 -17.65625 L 5.9375 -3.09375 L 5.765625 -3.421875 Z M 10.84375 -3.421875 "/></g></g></g><g fill="#000000" fill-opacity="1"><g transform="translate(278.614416, 299.929056)"><g><path d="M 17 -20.828125 C 17.507812 -20.828125 17.921875 -20.65625 18.234375 -20.3125 C 18.554688 -19.96875 18.71875 -19.535156 18.71875 -19.015625 L 18.71875 -8.265625 C 18.71875 -6.617188 18.363281 -5.160156 17.65625 -3.890625 C 16.957031 -2.617188 15.992188 -1.625 14.765625 -0.90625 C 13.535156 -0.195312 12.109375 0.15625 10.484375 0.15625 C 8.859375 0.15625 7.425781 -0.195312 6.1875 -0.90625 C 4.957031 -1.625 3.988281 -2.617188 3.28125 -3.890625 C 2.582031 -5.160156 2.234375 -6.617188 2.234375 -8.265625 L 2.234375 -19.015625 C 2.234375 -19.535156 2.410156 -19.96875 2.765625 -20.3125 C 3.117188 -20.65625 3.570312 -20.828125 4.125 -20.828125 C 4.582031 -20.828125 4.992188 -20.65625 5.359375 -20.3125 C 5.722656 -19.96875 5.90625 -19.535156 5.90625 -19.015625 L 5.90625 -8.265625 C 5.90625 -7.273438 6.117188 -6.414062 6.546875 -5.6875 C 6.972656 -4.96875 7.535156 -4.410156 8.234375 -4.015625 C 8.941406 -3.617188 9.691406 -3.421875 10.484375 -3.421875 C 11.335938 -3.421875 12.128906 -3.617188 12.859375 -4.015625 C 13.597656 -4.410156 14.191406 -4.96875 14.640625 -5.6875 C 15.097656 -6.414062 15.328125 -7.273438 15.328125 -8.265625 L 15.328125 -19.015625 C 15.328125 -19.535156 15.472656 -19.96875 15.765625 -20.3125 C 16.066406 -20.65625 16.476562 -20.828125 17 -20.828125 Z M 17 -20.828125 "/></g></g></g><g fill="#000000" fill-opacity="1"><g transform="translate(299.060896, 299.929056)"><g><path d="M 16.796875 -19.796875 C 17.304688 -19.535156 17.601562 -19.125 17.6875 -18.5625 C 17.78125 -18.007812 17.640625 -17.507812 17.265625 -17.0625 C 17.003906 -16.707031 16.671875 -16.507812 16.265625 -16.46875 C 15.859375 -16.425781 15.445312 -16.503906 15.03125 -16.703125 C 14.5625 -16.921875 14.0625 -17.085938 13.53125 -17.203125 C 13.007812 -17.328125 12.460938 -17.390625 11.890625 -17.390625 C 10.816406 -17.390625 9.859375 -17.21875 9.015625 -16.875 C 8.171875 -16.539062 7.453125 -16.0625 6.859375 -15.4375 C 6.265625 -14.8125 5.8125 -14.070312 5.5 -13.21875 C 5.195312 -12.375 5.046875 -11.4375 5.046875 -10.40625 C 5.046875 -9.195312 5.21875 -8.144531 5.5625 -7.25 C 5.914062 -6.351562 6.398438 -5.609375 7.015625 -5.015625 C 7.628906 -4.421875 8.351562 -3.976562 9.1875 -3.6875 C 10.019531 -3.40625 10.921875 -3.265625 11.890625 -3.265625 C 12.421875 -3.265625 12.953125 -3.3125 13.484375 -3.40625 C 14.023438 -3.507812 14.539062 -3.691406 15.03125 -3.953125 C 15.445312 -4.148438 15.859375 -4.21875 16.265625 -4.15625 C 16.671875 -4.101562 17.015625 -3.894531 17.296875 -3.53125 C 17.691406 -3.039062 17.832031 -2.53125 17.71875 -2 C 17.613281 -1.476562 17.316406 -1.097656 16.828125 -0.859375 C 16.304688 -0.597656 15.769531 -0.382812 15.21875 -0.21875 C 14.675781 -0.0507812 14.128906 0.0703125 13.578125 0.15625 C 13.023438 0.25 12.460938 0.296875 11.890625 0.296875 C 10.460938 0.296875 9.109375 0.0703125 7.828125 -0.375 C 6.546875 -0.832031 5.40625 -1.507812 4.40625 -2.40625 C 3.40625 -3.300781 2.617188 -4.414062 2.046875 -5.75 C 1.472656 -7.082031 1.1875 -8.632812 1.1875 -10.40625 C 1.1875 -11.925781 1.445312 -13.328125 1.96875 -14.609375 C 2.5 -15.898438 3.242188 -17.015625 4.203125 -17.953125 C 5.160156 -18.898438 6.289062 -19.632812 7.59375 -20.15625 C 8.90625 -20.6875 10.335938 -20.953125 11.890625 -20.953125 C 12.753906 -20.953125 13.601562 -20.851562 14.4375 -20.65625 C 15.269531 -20.457031 16.054688 -20.171875 16.796875 -19.796875 Z M 16.796875 -19.796875 "/></g></g></g><g fill="#000000" fill-opacity="1"><g transform="translate(317.189293, 299.929056)"><g><path d="M 9.265625 0 C 8.710938 0 8.257812 -0.171875 7.90625 -0.515625 C 7.550781 -0.867188 7.375 -1.300781 7.375 -1.8125 L 7.375 -19.046875 L 11.234375 -19.046875 L 11.234375 -1.8125 C 11.234375 -1.300781 11.050781 -0.867188 10.6875 -0.515625 C 10.320312 -0.171875 9.847656 0 9.265625 0 Z M 2.703125 -17.390625 C 2.191406 -17.390625 1.757812 -17.546875 1.40625 -17.859375 C 1.0625 -18.179688 0.890625 -18.597656 0.890625 -19.109375 C 0.890625 -19.617188 1.0625 -20.023438 1.40625 -20.328125 C 1.757812 -20.640625 2.191406 -20.796875 2.703125 -20.796875 L 15.90625 -20.796875 C 16.414062 -20.796875 16.84375 -20.640625 17.1875 -20.328125 C 17.539062 -20.015625 17.71875 -19.597656 17.71875 -19.078125 C 17.71875 -18.566406 17.539062 -18.15625 17.1875 -17.84375 C 16.84375 -17.539062 16.414062 -17.390625 15.90625 -17.390625 Z M 2.703125 -17.390625 "/></g></g></g><g fill="#000000" fill-opacity="1"><g transform="translate(335.287973, 299.929056)"><g><path d="M 8.921875 0.296875 C 7.523438 0.296875 6.269531 0.125 5.15625 -0.21875 C 4.050781 -0.570312 2.992188 -1.179688 1.984375 -2.046875 C 1.734375 -2.265625 1.535156 -2.507812 1.390625 -2.78125 C 1.253906 -3.0625 1.1875 -3.34375 1.1875 -3.625 C 1.1875 -4.082031 1.347656 -4.484375 1.671875 -4.828125 C 2.003906 -5.171875 2.414062 -5.34375 2.90625 -5.34375 C 3.289062 -5.34375 3.628906 -5.226562 3.921875 -5 C 4.671875 -4.382812 5.414062 -3.914062 6.15625 -3.59375 C 6.90625 -3.28125 7.828125 -3.125 8.921875 -3.125 C 9.648438 -3.125 10.320312 -3.234375 10.9375 -3.453125 C 11.550781 -3.679688 12.046875 -3.988281 12.421875 -4.375 C 12.796875 -4.769531 12.984375 -5.210938 12.984375 -5.703125 C 12.984375 -6.296875 12.804688 -6.800781 12.453125 -7.21875 C 12.097656 -7.632812 11.550781 -7.984375 10.8125 -8.265625 C 10.082031 -8.554688 9.15625 -8.78125 8.03125 -8.9375 C 6.957031 -9.101562 6.015625 -9.347656 5.203125 -9.671875 C 4.390625 -9.992188 3.707031 -10.40625 3.15625 -10.90625 C 2.613281 -11.414062 2.203125 -12.015625 1.921875 -12.703125 C 1.648438 -13.390625 1.515625 -14.160156 1.515625 -15.015625 C 1.515625 -16.296875 1.84375 -17.390625 2.5 -18.296875 C 3.164062 -19.210938 4.0625 -19.90625 5.1875 -20.375 C 6.320312 -20.851562 7.570312 -21.09375 8.9375 -21.09375 C 10.226562 -21.09375 11.421875 -20.898438 12.515625 -20.515625 C 13.617188 -20.128906 14.519531 -19.640625 15.21875 -19.046875 C 15.789062 -18.585938 16.078125 -18.0625 16.078125 -17.46875 C 16.078125 -17.039062 15.90625 -16.644531 15.5625 -16.28125 C 15.226562 -15.925781 14.835938 -15.75 14.390625 -15.75 C 14.085938 -15.75 13.816406 -15.835938 13.578125 -16.015625 C 13.265625 -16.296875 12.835938 -16.554688 12.296875 -16.796875 C 11.765625 -17.046875 11.203125 -17.253906 10.609375 -17.421875 C 10.015625 -17.597656 9.457031 -17.6875 8.9375 -17.6875 C 8.09375 -17.6875 7.375 -17.578125 6.78125 -17.359375 C 6.195312 -17.140625 5.753906 -16.84375 5.453125 -16.46875 C 5.160156 -16.09375 5.015625 -15.65625 5.015625 -15.15625 C 5.015625 -14.5625 5.1875 -14.070312 5.53125 -13.6875 C 5.882812 -13.300781 6.390625 -12.992188 7.046875 -12.765625 C 7.703125 -12.535156 8.484375 -12.332031 9.390625 -12.15625 C 10.578125 -11.9375 11.617188 -11.675781 12.515625 -11.375 C 13.421875 -11.082031 14.171875 -10.703125 14.765625 -10.234375 C 15.359375 -9.773438 15.800781 -9.191406 16.09375 -8.484375 C 16.394531 -7.773438 16.546875 -6.914062 16.546875 -5.90625 C 16.546875 -4.625 16.1875 -3.515625 15.46875 -2.578125 C 14.757812 -1.648438 13.828125 -0.9375 12.671875 -0.4375 C 11.515625 0.0507812 10.265625 0.296875 8.921875 0.296875 Z M 8.921875 0.296875 "/></g></g></g><g fill="#000000" fill-opacity="1"><g transform="translate(204.985808, 330.9825)"><g><path d="M 4.046875 -20.796875 L 14 -20.796875 C 14.507812 -20.796875 14.9375 -20.632812 15.28125 -20.3125 C 15.632812 -19.988281 15.8125 -19.566406 15.8125 -19.046875 C 15.8125 -18.554688 15.632812 -18.15625 15.28125 -17.84375 C 14.9375 -17.539062 14.507812 -17.390625 14 -17.390625 L 5.671875 -17.390625 L 5.9375 -17.890625 L 5.9375 -12.09375 L 5.703125 -12.328125 L 12.65625 -12.328125 C 13.175781 -12.328125 13.609375 -12.164062 13.953125 -11.84375 C 14.296875 -11.519531 14.46875 -11.097656 14.46875 -10.578125 C 14.46875 -10.085938 14.296875 -9.6875 13.953125 -9.375 C 13.609375 -9.070312 13.175781 -8.921875 12.65625 -8.921875 L 5.796875 -8.921875 L 5.9375 -9.15625 L 5.9375 -3.15625 L 5.703125 -3.421875 L 14 -3.421875 C 14.507812 -3.421875 14.9375 -3.242188 15.28125 -2.890625 C 15.632812 -2.546875 15.8125 -2.144531 15.8125 -1.6875 C 15.8125 -1.195312 15.632812 -0.789062 15.28125 -0.46875 C 14.9375 -0.15625 14.507812 0 14 0 L 4.046875 0 C 3.523438 0 3.09375 -0.171875 2.75 -0.515625 C 2.40625 -0.867188 2.234375 -1.300781 2.234375 -1.8125 L 2.234375 -18.984375 C 2.234375 -19.503906 2.40625 -19.9375 2.75 -20.28125 C 3.09375 -20.625 3.523438 -20.796875 4.046875 -20.796875 Z M 4.046875 -20.796875 "/></g></g></g><g fill="#000000" fill-opacity="1"><g transform="translate(221.479645, 330.9825)"><g><path d="M 8.921875 0.296875 C 7.523438 0.296875 6.269531 0.125 5.15625 -0.21875 C 4.050781 -0.570312 2.992188 -1.179688 1.984375 -2.046875 C 1.734375 -2.265625 1.535156 -2.507812 1.390625 -2.78125 C 1.253906 -3.0625 1.1875 -3.34375 1.1875 -3.625 C 1.1875 -4.082031 1.347656 -4.484375 1.671875 -4.828125 C 2.003906 -5.171875 2.414062 -5.34375 2.90625 -5.34375 C 3.289062 -5.34375 3.628906 -5.226562 3.921875 -5 C 4.671875 -4.382812 5.414062 -3.914062 6.15625 -3.59375 C 6.90625 -3.28125 7.828125 -3.125 8.921875 -3.125 C 9.648438 -3.125 10.320312 -3.234375 10.9375 -3.453125 C 11.550781 -3.679688 12.046875 -3.988281 12.421875 -4.375 C 12.796875 -4.769531 12.984375 -5.210938 12.984375 -5.703125 C 12.984375 -6.296875 12.804688 -6.800781 12.453125 -7.21875 C 12.097656 -7.632812 11.550781 -7.984375 10.8125 -8.265625 C 10.082031 -8.554688 9.15625 -8.78125 8.03125 -8.9375 C 6.957031 -9.101562 6.015625 -9.347656 5.203125 -9.671875 C 4.390625 -9.992188 3.707031 -10.40625 3.15625 -10.90625 C 2.613281 -11.414062 2.203125 -12.015625 1.921875 -12.703125 C 1.648438 -13.390625 1.515625 -14.160156 1.515625 -15.015625 C 1.515625 -16.296875 1.84375 -17.390625 2.5 -18.296875 C 3.164062 -19.210938 4.0625 -19.90625 5.1875 -20.375 C 6.320312 -20.851562 7.570312 -21.09375 8.9375 -21.09375 C 10.226562 -21.09375 11.421875 -20.898438 12.515625 -20.515625 C 13.617188 -20.128906 14.519531 -19.640625 15.21875 -19.046875 C 15.789062 -18.585938 16.078125 -18.0625 16.078125 -17.46875 C 16.078125 -17.039062 15.90625 -16.644531 15.5625 -16.28125 C 15.226562 -15.925781 14.835938 -15.75 14.390625 -15.75 C 14.085938 -15.75 13.816406 -15.835938 13.578125 -16.015625 C 13.265625 -16.296875 12.835938 -16.554688 12.296875 -16.796875 C 11.765625 -17.046875 11.203125 -17.253906 10.609375 -17.421875 C 10.015625 -17.597656 9.457031 -17.6875 8.9375 -17.6875 C 8.09375 -17.6875 7.375 -17.578125 6.78125 -17.359375 C 6.195312 -17.140625 5.753906 -16.84375 5.453125 -16.46875 C 5.160156 -16.09375 5.015625 -15.65625 5.015625 -15.15625 C 5.015625 -14.5625 5.1875 -14.070312 5.53125 -13.6875 C 5.882812 -13.300781 6.390625 -12.992188 7.046875 -12.765625 C 7.703125 -12.535156 8.484375 -12.332031 9.390625 -12.15625 C 10.578125 -11.9375 11.617188 -11.675781 12.515625 -11.375 C 13.421875 -11.082031 14.171875 -10.703125 14.765625 -10.234375 C 15.359375 -9.773438 15.800781 -9.191406 16.09375 -8.484375 C 16.394531 -7.773438 16.546875 -6.914062 16.546875 -5.90625 C 16.546875 -4.625 16.1875 -3.515625 15.46875 -2.578125 C 14.757812 -1.648438 13.828125 -0.9375 12.671875 -0.4375 C 11.515625 0.0507812 10.265625 0.296875 8.921875 0.296875 Z M 8.921875 0.296875 "/></g></g></g><g fill="#000000" fill-opacity="1"><g transform="translate(238.716459, 330.9825)"><g><path d="M 9.265625 0 C 8.710938 0 8.257812 -0.171875 7.90625 -0.515625 C 7.550781 -0.867188 7.375 -1.300781 7.375 -1.8125 L 7.375 -19.046875 L 11.234375 -19.046875 L 11.234375 -1.8125 C 11.234375 -1.300781 11.050781 -0.867188 10.6875 -0.515625 C 10.320312 -0.171875 9.847656 0 9.265625 0 Z M 2.703125 -17.390625 C 2.191406 -17.390625 1.757812 -17.546875 1.40625 -17.859375 C 1.0625 -18.179688 0.890625 -18.597656 0.890625 -19.109375 C 0.890625 -19.617188 1.0625 -20.023438 1.40625 -20.328125 C 1.757812 -20.640625 2.191406 -20.796875 2.703125 -20.796875 L 15.90625 -20.796875 C 16.414062 -20.796875 16.84375 -20.640625 17.1875 -20.328125 C 17.539062 -20.015625 17.71875 -19.597656 17.71875 -19.078125 C 17.71875 -18.566406 17.539062 -18.15625 17.1875 -17.84375 C 16.84375 -17.539062 16.414062 -17.390625 15.90625 -17.390625 Z M 2.703125 -17.390625 "/></g></g></g><g fill="#000000" fill-opacity="1"><g transform="translate(256.815133, 330.9825)"><g><path d="M 11.140625 -20.796875 C 12.566406 -20.796875 13.832031 -20.53125 14.9375 -20 C 16.050781 -19.46875 16.988281 -18.71875 17.75 -17.75 C 18.519531 -16.789062 19.097656 -15.679688 19.484375 -14.421875 C 19.867188 -13.171875 20.0625 -11.832031 20.0625 -10.40625 C 20.0625 -8.476562 19.710938 -6.726562 19.015625 -5.15625 C 18.328125 -3.582031 17.320312 -2.328125 16 -1.390625 C 14.6875 -0.460938 13.066406 0 11.140625 0 L 4.046875 0 C 3.523438 0 3.09375 -0.171875 2.75 -0.515625 C 2.40625 -0.867188 2.234375 -1.300781 2.234375 -1.8125 L 2.234375 -18.984375 C 2.234375 -19.503906 2.40625 -19.9375 2.75 -20.28125 C 3.09375 -20.625 3.523438 -20.796875 4.046875 -20.796875 Z M 10.84375 -3.421875 C 12.09375 -3.421875 13.113281 -3.738281 13.90625 -4.375 C 14.695312 -5.019531 15.273438 -5.875 15.640625 -6.9375 C 16.015625 -8 16.203125 -9.15625 16.203125 -10.40625 C 16.203125 -11.332031 16.097656 -12.21875 15.890625 -13.0625 C 15.679688 -13.90625 15.359375 -14.644531 14.921875 -15.28125 C 14.484375 -15.925781 13.925781 -16.4375 13.25 -16.8125 C 12.582031 -17.195312 11.78125 -17.390625 10.84375 -17.390625 L 5.640625 -17.390625 L 5.9375 -17.65625 L 5.9375 -3.09375 L 5.765625 -3.421875 Z M 10.84375 -3.421875 "/></g></g></g><g fill="#000000" fill-opacity="1"><g transform="translate(277.558803, 330.9825)"><g/></g></g><g fill="#000000" fill-opacity="1"><g transform="translate(285.374684, 330.9825)"><g><path d="M 13.609375 -3.265625 C 14.085938 -3.265625 14.484375 -3.101562 14.796875 -2.78125 C 15.117188 -2.46875 15.28125 -2.078125 15.28125 -1.609375 C 15.28125 -1.148438 15.117188 -0.765625 14.796875 -0.453125 C 14.484375 -0.148438 14.085938 0 13.609375 0 L 3.5 0 C 2.988281 0 2.582031 -0.15625 2.28125 -0.46875 C 1.988281 -0.789062 1.84375 -1.195312 1.84375 -1.6875 C 1.84375 -2.1875 2.019531 -2.625 2.375 -3 L 8.859375 -9.921875 C 9.585938 -10.710938 10.164062 -11.523438 10.59375 -12.359375 C 11.019531 -13.191406 11.234375 -13.914062 11.234375 -14.53125 C 11.234375 -15.519531 10.945312 -16.316406 10.375 -16.921875 C 9.800781 -17.523438 9.035156 -17.828125 8.078125 -17.828125 C 7.703125 -17.828125 7.316406 -17.738281 6.921875 -17.5625 C 6.523438 -17.382812 6.144531 -17.132812 5.78125 -16.8125 C 5.414062 -16.5 5.070312 -16.132812 4.75 -15.71875 C 4.507812 -15.40625 4.269531 -15.207031 4.03125 -15.125 C 3.800781 -15.050781 3.585938 -15.015625 3.390625 -15.015625 C 2.953125 -15.015625 2.550781 -15.175781 2.1875 -15.5 C 1.820312 -15.820312 1.640625 -16.203125 1.640625 -16.640625 C 1.640625 -16.972656 1.75 -17.296875 1.96875 -17.609375 C 2.195312 -17.929688 2.484375 -18.265625 2.828125 -18.609375 C 3.316406 -19.097656 3.867188 -19.53125 4.484375 -19.90625 C 5.097656 -20.28125 5.734375 -20.570312 6.390625 -20.78125 C 7.046875 -20.988281 7.679688 -21.09375 8.296875 -21.09375 C 9.617188 -21.09375 10.769531 -20.832031 11.75 -20.3125 C 12.726562 -19.789062 13.484375 -19.046875 14.015625 -18.078125 C 14.554688 -17.117188 14.828125 -15.988281 14.828125 -14.6875 C 14.828125 -13.59375 14.503906 -12.375 13.859375 -11.03125 C 13.210938 -9.695312 12.347656 -8.445312 11.265625 -7.28125 L 7.25 -3 L 6.921875 -3.265625 Z M 13.609375 -3.265625 "/></g></g></g><g fill="#000000" fill-opacity="1"><g transform="translate(301.779368, 330.9825)"><g><path d="M 9.125 0.296875 C 7.414062 0.296875 5.972656 -0.148438 4.796875 -1.046875 C 3.617188 -1.953125 2.722656 -3.210938 2.109375 -4.828125 C 1.492188 -6.441406 1.1875 -8.300781 1.1875 -10.40625 C 1.1875 -12.519531 1.492188 -14.378906 2.109375 -15.984375 C 2.722656 -17.585938 3.617188 -18.835938 4.796875 -19.734375 C 5.972656 -20.640625 7.414062 -21.09375 9.125 -21.09375 C 10.820312 -21.09375 12.257812 -20.640625 13.4375 -19.734375 C 14.625 -18.835938 15.523438 -17.585938 16.140625 -15.984375 C 16.753906 -14.378906 17.0625 -12.519531 17.0625 -10.40625 C 17.0625 -8.300781 16.753906 -6.441406 16.140625 -4.828125 C 15.523438 -3.210938 14.625 -1.953125 13.4375 -1.046875 C 12.257812 -0.148438 10.820312 0.296875 9.125 0.296875 Z M 9.125 -3.265625 C 9.957031 -3.265625 10.675781 -3.523438 11.28125 -4.046875 C 11.882812 -4.578125 12.351562 -5.375 12.6875 -6.4375 C 13.019531 -7.5 13.1875 -8.820312 13.1875 -10.40625 C 13.1875 -12.007812 13.019531 -13.332031 12.6875 -14.375 C 12.351562 -15.425781 11.882812 -16.210938 11.28125 -16.734375 C 10.675781 -17.265625 9.957031 -17.53125 9.125 -17.53125 C 8.3125 -17.53125 7.597656 -17.265625 6.984375 -16.734375 C 6.367188 -16.210938 5.890625 -15.425781 5.546875 -14.375 C 5.210938 -13.332031 5.046875 -12.007812 5.046875 -10.40625 C 5.046875 -8.820312 5.210938 -7.5 5.546875 -6.4375 C 5.890625 -5.375 6.367188 -4.578125 6.984375 -4.046875 C 7.597656 -3.523438 8.3125 -3.265625 9.125 -3.265625 Z M 9.125 -3.265625 "/></g></g></g><g fill="#000000" fill-opacity="1"><g transform="translate(319.521409, 330.9825)"><g><path d="M 13.609375 -3.265625 C 14.085938 -3.265625 14.484375 -3.101562 14.796875 -2.78125 C 15.117188 -2.46875 15.28125 -2.078125 15.28125 -1.609375 C 15.28125 -1.148438 15.117188 -0.765625 14.796875 -0.453125 C 14.484375 -0.148438 14.085938 0 13.609375 0 L 3.5 0 C 2.988281 0 2.582031 -0.15625 2.28125 -0.46875 C 1.988281 -0.789062 1.84375 -1.195312 1.84375 -1.6875 C 1.84375 -2.1875 2.019531 -2.625 2.375 -3 L 8.859375 -9.921875 C 9.585938 -10.710938 10.164062 -11.523438 10.59375 -12.359375 C 11.019531 -13.191406 11.234375 -13.914062 11.234375 -14.53125 C 11.234375 -15.519531 10.945312 -16.316406 10.375 -16.921875 C 9.800781 -17.523438 9.035156 -17.828125 8.078125 -17.828125 C 7.703125 -17.828125 7.316406 -17.738281 6.921875 -17.5625 C 6.523438 -17.382812 6.144531 -17.132812 5.78125 -16.8125 C 5.414062 -16.5 5.070312 -16.132812 4.75 -15.71875 C 4.507812 -15.40625 4.269531 -15.207031 4.03125 -15.125 C 3.800781 -15.050781 3.585938 -15.015625 3.390625 -15.015625 C 2.953125 -15.015625 2.550781 -15.175781 2.1875 -15.5 C 1.820312 -15.820312 1.640625 -16.203125 1.640625 -16.640625 C 1.640625 -16.972656 1.75 -17.296875 1.96875 -17.609375 C 2.195312 -17.929688 2.484375 -18.265625 2.828125 -18.609375 C 3.316406 -19.097656 3.867188 -19.53125 4.484375 -19.90625 C 5.097656 -20.28125 5.734375 -20.570312 6.390625 -20.78125 C 7.046875 -20.988281 7.679688 -21.09375 8.296875 -21.09375 C 9.617188 -21.09375 10.769531 -20.832031 11.75 -20.3125 C 12.726562 -19.789062 13.484375 -19.046875 14.015625 -18.078125 C 14.554688 -17.117188 14.828125 -15.988281 14.828125 -14.6875 C 14.828125 -13.59375 14.503906 -12.375 13.859375 -11.03125 C 13.210938 -9.695312 12.347656 -8.445312 11.265625 -7.28125 L 7.25 -3 L 6.921875 -3.265625 Z M 13.609375 -3.265625 "/></g></g></g><g fill="#000000" fill-opacity="1"><g transform="translate(335.926094, 330.9825)"><g><path d="M 7.15625 0.296875 C 6.425781 0.296875 5.644531 0.179688 4.8125 -0.046875 C 3.976562 -0.273438 3.296875 -0.609375 2.765625 -1.046875 C 2.503906 -1.253906 2.300781 -1.53125 2.15625 -1.875 C 2.007812 -2.226562 1.9375 -2.5625 1.9375 -2.875 C 1.9375 -3.21875 2.078125 -3.535156 2.359375 -3.828125 C 2.648438 -4.128906 3.0625 -4.28125 3.59375 -4.28125 C 3.945312 -4.28125 4.394531 -4.09375 4.9375 -3.71875 C 5.25 -3.519531 5.59375 -3.335938 5.96875 -3.171875 C 6.34375 -3.015625 6.726562 -2.9375 7.125 -2.9375 C 8.082031 -2.9375 8.90625 -3.109375 9.59375 -3.453125 C 10.289062 -3.804688 10.828125 -4.289062 11.203125 -4.90625 C 11.578125 -5.519531 11.765625 -6.242188 11.765625 -7.078125 C 11.765625 -7.828125 11.59375 -8.46875 11.25 -9 C 10.90625 -9.539062 10.445312 -9.957031 9.875 -10.25 C 9.3125 -10.550781 8.703125 -10.703125 8.046875 -10.703125 C 7.429688 -10.703125 6.894531 -10.601562 6.4375 -10.40625 C 5.988281 -10.207031 5.578125 -10.003906 5.203125 -9.796875 C 4.828125 -9.585938 4.453125 -9.484375 4.078125 -9.484375 C 3.421875 -9.484375 2.929688 -9.625 2.609375 -9.90625 C 2.296875 -10.195312 2.097656 -10.539062 2.015625 -10.9375 C 1.941406 -11.332031 1.925781 -11.6875 1.96875 -12 L 2.875 -19.234375 C 2.957031 -19.648438 3.160156 -19.988281 3.484375 -20.25 C 3.816406 -20.519531 4.210938 -20.65625 4.671875 -20.65625 L 13.25 -20.65625 C 13.726562 -20.65625 14.125 -20.492188 14.4375 -20.171875 C 14.757812 -19.859375 14.921875 -19.460938 14.921875 -18.984375 C 14.921875 -18.535156 14.757812 -18.15625 14.4375 -17.84375 C 14.125 -17.539062 13.726562 -17.390625 13.25 -17.390625 L 5.59375 -17.390625 L 5.90625 -17.65625 L 5.109375 -11.625 L 4.71875 -12.75 C 4.84375 -12.945312 5.101562 -13.132812 5.5 -13.3125 C 5.894531 -13.488281 6.347656 -13.640625 6.859375 -13.765625 C 7.378906 -13.898438 7.882812 -13.96875 8.375 -13.96875 C 9.707031 -13.96875 10.894531 -13.664062 11.9375 -13.0625 C 12.988281 -12.457031 13.816406 -11.632812 14.421875 -10.59375 C 15.023438 -9.550781 15.328125 -8.378906 15.328125 -7.078125 C 15.328125 -5.585938 14.988281 -4.285156 14.3125 -3.171875 C 13.644531 -2.066406 12.703125 -1.210938 11.484375 -0.609375 C 10.265625 -0.00390625 8.820312 0.296875 7.15625 0.296875 Z M 7.15625 0.296875 "/></g></g></g></svg>